<svg width="31" height="30" viewBox="0 0 31 30" fill="none" xmlns="http://www.w3.org/2000/svg">
<path fill-rule="evenodd" clip-rule="evenodd" d="M25.8159 24.3569C27.0286 22.9953 27.7098 21.1488 27.7098 19.2234C27.7098 17.298 27.0286 15.4514 25.8159 14.0898L15.8635 2.91732C15.5779 2.597 15.4174 2.16245 15.4173 1.70928C15.4171 1.25611 15.5774 0.821441 15.8627 0.500888C16.1481 0.180335 16.5351 0.000160302 16.9388 1.06914e-07C17.3425 -0.000160088 17.7297 0.179707 18.0153 0.500033L27.9677 11.6725C29.7516 13.6747 30.7539 16.3904 30.7542 19.2222C30.7545 22.0539 29.7527 24.7699 27.9692 26.7725C26.1857 28.7751 23.7666 29.9003 21.244 29.9006C18.7215 29.901 16.3021 28.7763 14.5182 26.7742L2.41403 13.1844C1.12958 11.7423 0.40806 9.78638 0.408203 7.74703C0.408346 5.70769 1.13014 3.75193 2.4148 2.31001C3.69945 0.868092 5.44174 0.0581186 7.25838 0.0582788C9.07501 0.058439 10.8172 0.868719 12.1016 2.31087L24.2043 15.8972C24.9706 16.7833 25.3956 17.9722 25.3875 19.2072C25.3793 20.4421 24.9386 21.6238 24.1606 22.497C23.3826 23.3701 22.3298 23.8646 21.2297 23.8734C20.1297 23.8823 19.0706 23.4049 18.2816 22.5444L7.2548 10.1641C6.96925 9.84375 6.80875 9.4092 6.80861 8.95603C6.80847 8.50286 6.96869 8.06819 7.25403 7.74764C7.53938 7.42708 7.92647 7.24691 8.33015 7.24675C8.73383 7.24659 9.12104 7.42646 9.40658 7.74678L20.4349 20.1271C20.6492 20.3679 20.9399 20.5033 21.2432 20.5034C21.5464 20.5036 21.8372 20.3685 22.0518 20.1279C22.2663 19.8873 22.3869 19.5609 22.387 19.2206C22.3871 18.8802 22.2668 18.5536 22.0525 18.3128L9.94986 4.72645C9.59654 4.32959 9.17704 4.01474 8.71533 3.79987C8.25362 3.58501 7.75873 3.47434 7.25891 3.47418C6.7591 3.47402 6.26416 3.58438 5.80234 3.79895C5.34052 4.01352 4.92086 4.32811 4.56734 4.72474C3.85338 5.52578 3.45211 6.61241 3.45183 7.74557C3.45154 8.87874 3.85226 9.96562 4.56582 10.7671L16.67 24.3552C17.8829 25.7166 19.5278 26.4814 21.2429 26.4814C22.9581 26.4814 24.603 25.7166 25.8159 24.3552V24.3569Z" fill="#EA8D55"/>
</svg>
