<svg width="175" height="227" viewBox="0 0 175 227" fill="none" xmlns="http://www.w3.org/2000/svg">
<path d="M124.552 75.4337C123.889 78.1759 124.953 79.731 126.248 81.8487C122.824 86.6672 114.102 82.8868 109.852 80.5334C112.112 75.8473 120.096 72.0835 124.524 75.5908L124.552 75.4337Z" fill="#EA8D55"/>
<path d="M147.943 70.3313H147.971C148.014 70.2691 148.066 70.1944 148.118 70.1279L147.947 70.3313H147.943Z" fill="#EA8D55"/>
<path d="M143.201 67.7797C143.265 67.5889 143.336 67.4147 143.408 67.2529C143.317 67.4147 143.233 67.5972 143.201 67.7797Z" fill="#EA8D55"/>
<path d="M154.044 121.102C180.314 121.594 157.793 103.698 149.444 87.0377C152.145 85.1723 153.964 80.7426 152.53 78.6457C151.724 78.6457 150.727 78.0914 149.404 78.2693C148.495 78.3892 147.279 79.2743 146.489 79.2371C145.762 75.9076 146.016 72.8966 147.839 70.4439L147.943 70.3239L148.113 70.1213C149.003 68.9384 150.334 67.9871 151.76 67.6769C152.979 67.4122 154.385 67.5693 155.648 67.4453C158.401 67.1764 161.59 66.9531 163.433 69.5422C163.608 69.7697 165.975 66.5064 166.162 66.1217C166.623 65.158 166.881 64.0868 166.762 63.0073C166.539 60.9351 165.01 59.3593 163.322 58.4121C160.931 57.0803 158.008 56.7412 155.378 57.345C151.597 58.2053 148.967 61.3611 146.219 63.9751C145.44 64.7155 144.654 65.4682 144.006 66.3285V66.3368C143.784 66.6305 143.585 66.9283 143.403 67.2467C143.331 67.408 143.26 67.5818 143.196 67.772C143.196 67.772 143.192 67.772 143.192 67.7803C140.813 74.7206 146.096 101.092 152.042 104.273C159.453 109.658 146.278 116.151 139.256 113.661C139.522 110.113 137.302 106.688 134.716 111.416C127.332 128.861 149.245 111.631 154.04 121.098L154.044 121.102Z" fill="#EA8D55"/>
<path d="M143.407 67.2508C143.586 66.932 143.789 66.6338 144.003 66.3398C143.801 66.493 143.614 66.7995 143.407 67.2508Z" fill="#EA8D55"/>
<path d="M154.969 133.111C154.691 133.094 154.413 133.057 154.143 132.995C151.633 132.424 148.642 131.254 146.159 130.373C144.567 129.806 142.906 129.235 141.238 129.467C137.882 129.934 135.785 133.338 133.179 135.588C130.458 137.942 126.999 139.104 123.829 140.737C121.649 141.862 119.659 143.289 118.11 145.262C116.275 147.595 115.945 147.864 113.335 145.99C110.595 144.021 108.807 141.296 107.215 138.314C103.604 131.555 100.021 128.342 92.1094 128.735C80.6067 126.898 67.3921 107.48 76.1542 99.9561C86.4971 91.0967 78.2513 72.5217 89.2933 67.4592C91.7003 66.3549 93.8253 67.0415 96.3395 64.9941C106.357 56.8172 114.233 57.5493 122.062 61.0359C131.876 65.4119 153.472 72.0957 136.432 57.3921C136.055 57.0529 134.947 56.3953 134.72 56.2381C130.641 53.3553 107.715 49.3971 97.825 59.5676C98.9808 54.9808 97.8012 49.1365 97.2213 43.2137C99.8388 15.1962 126.316 27.3561 144.011 39.8056C146.982 41.8778 153.396 36.8442 151.057 34.04C147.061 29.2505 138.442 26.8185 135.92 21.2265C134.669 18.4512 132.472 16.2012 129.914 14.6874C127.205 13.0868 124.358 13.062 121.557 11.9866C119.182 11.0725 116.696 9.09138 114.579 7.6479C110.599 4.93466 107.517 1.44798 102.587 0.546319C98.0117 -0.289161 93.4003 1.33217 88.7928 1.94017C84.7375 2.47372 80.5908 2.21314 76.6268 1.175C68.9531 -0.835119 61.8473 -0.851663 56.0602 5.86527C54.8567 7.26739 53.9074 8.89699 52.6086 10.2081C50.996 11.8419 48.9305 12.8841 46.9049 13.9016C42.7185 16.0027 38.532 18.108 34.3456 20.2091C27.7085 23.5427 20.5154 27.472 17.7747 34.5984C16.5117 37.8865 15.9834 47.2092 15.1374 50.6421C12.2379 62.3884 1.86318 65.3622 0.226749 77.3733C-0.889363 85.5503 2.49075 93.7272 2.24052 101.983C2.09753 106.64 0.806651 111.338 1.73211 115.901C3.26925 123.49 10.522 128.739 12.075 136.324C12.8297 140.018 12.1346 143.852 12.3213 147.62C12.8337 157.799 21.6712 157.832 24.3801 160.52C36.2402 172.287 27.649 164.375 42.4921 172.568C49.3953 176.378 49.0934 179.517 52.8667 184.551C56.6401 189.584 69.4257 190.577 73.4532 195.139C78.2593 201.219 83.4466 206.356 89.9884 206.513C99.0007 206.724 101.717 210.364 107.858 217.023C126.911 229.84 139.093 229.811 159.354 218.148C178.28 203.655 158.27 177.788 173.447 161.724C176.402 158.597 174.551 151.446 172.751 148.265C171.655 146.325 170.229 144.584 169.352 142.533C168.66 140.919 168.331 139.17 167.747 137.511C167.167 135.853 166.261 134.215 164.796 133.338C163.958 132.833 162.988 132.614 162.031 132.478C159.529 132.118 157.166 133.239 154.969 133.111ZM146.918 149.882C145.786 150.3 144.602 150.668 143.395 150.904C119.587 155.466 141.826 141.664 147.458 141.263C157.531 140.543 162.703 141.13 164.589 150.904C158.675 149.882 152.709 147.628 146.922 149.882H146.918Z" fill="#EA8D55"/>
</svg>
